<svg width="0" height="0" class="hidden">
    <symbol xmlns="http://www.w3.org/2000/svg" viewBox="0 0 19 12" id="arrowDown">
        <path d="M3.51844 1.32227L9.5001 7.30394L15.4818 1.32227C15.6245 1.17954 15.7939 1.06632 15.9804 0.989074C16.1669 0.911829 16.3668 0.87207 16.5686 0.87207C16.7705 0.87207 16.9704 0.911829 17.1569 0.989074C17.3433 1.06632 17.5128 1.17954 17.6555 1.32227C17.7983 1.465 17.9115 1.63445 17.9887 1.82093C18.066 2.00742 18.1057 2.20729 18.1057 2.40914C18.1057 2.611 18.066 2.81087 17.9887 2.99736C17.9115 3.18384 17.7983 3.35329 17.6555 3.49602L10.5793 10.5723C10.4366 10.7152 10.2672 10.8286 10.0807 10.9059C9.89423 10.9833 9.6943 11.0231 9.49239 11.0231C9.29048 11.0231 9.09056 10.9833 8.90406 10.9059C8.71756 10.8286 8.54814 10.7152 8.40552 10.5723L1.32927 3.49602C1.18635 3.35339 1.07296 3.18398 0.995602 2.99748C0.918239 2.81098 0.878418 2.61105 0.878418 2.40914C0.878418 2.20723 0.918239 2.00731 0.995602 1.82081C1.07296 1.63431 1.18635 1.46489 1.32927 1.32227C1.93052 0.736436 2.91719 0.721019 3.51844 1.32227Z"></path>
    </symbol>

    <symbol xmlns="http://www.w3.org/2000/svg" viewBox="0 0 40 28" id="burger">
        <path fill-rule="evenodd" clip-rule="evenodd"
              d="M2.39977 0.800049C2.01079 0.800049 1.63774 0.954572 1.36268 1.22963C1.08763 1.50468 0.933105 1.87773 0.933105 2.26672C0.933105 2.6557 1.08763 3.02875 1.36268 3.30381C1.63774 3.57886 2.01079 3.73338 2.39977 3.73338H37.5998C37.9888 3.73338 38.3618 3.57886 38.6369 3.30381C38.9119 3.02875 39.0664 2.6557 39.0664 2.26672C39.0664 1.87773 38.9119 1.50468 38.6369 1.22963C38.3618 0.954572 37.9888 0.800049 37.5998 0.800049H2.39977ZM0.933105 14C0.933105 13.6111 1.08763 13.238 1.36268 12.963C1.63774 12.6879 2.01079 12.5334 2.39977 12.5334H37.5998C37.9888 12.5334 38.3618 12.6879 38.6369 12.963C38.9119 13.238 39.0664 13.6111 39.0664 14C39.0664 14.389 38.9119 14.7621 38.6369 15.0371C38.3618 15.3122 37.9888 15.4667 37.5998 15.4667H2.39977C2.01079 15.4667 1.63774 15.3122 1.36268 15.0371C1.08763 14.7621 0.933105 14.389 0.933105 14ZM0.933105 25.7334C0.933105 25.3444 1.08763 24.9713 1.36268 24.6963C1.63774 24.4212 2.01079 24.2667 2.39977 24.2667H37.5998C37.9888 24.2667 38.3618 24.4212 38.6369 24.6963C38.9119 24.9713 39.0664 25.3444 39.0664 25.7334C39.0664 26.1224 38.9119 26.4954 38.6369 26.7705C38.3618 27.0455 37.9888 27.2001 37.5998 27.2001H2.39977C2.01079 27.2001 1.63774 27.0455 1.36268 26.7705C1.08763 26.4954 0.933105 26.1224 0.933105 25.7334Z"></path>
    </symbol>
    <symbol xmlns="http://www.w3.org/2000/svg" viewBox="0 0 26 26" id="cross">
        <path d="M13 15.5666L4.01663 24.55C3.68052 24.8861 3.25274 25.0541 2.7333 25.0541C2.21386 25.0541 1.78608 24.8861 1.44997 24.55C1.11386 24.2139 0.945801 23.7861 0.945801 23.2666C0.945801 22.7472 1.11386 22.3194 1.44997 21.9833L10.4333 13L1.44997 4.01663C1.11386 3.68052 0.945801 3.25274 0.945801 2.7333C0.945801 2.21386 1.11386 1.78608 1.44997 1.44997C1.78608 1.11386 2.21386 0.945801 2.7333 0.945801C3.25274 0.945801 3.68052 1.11386 4.01663 1.44997L13 10.4333L21.9833 1.44997C22.3194 1.11386 22.7472 0.945801 23.2666 0.945801C23.7861 0.945801 24.2139 1.11386 24.55 1.44997C24.8861 1.78608 25.0541 2.21386 25.0541 2.7333C25.0541 3.25274 24.8861 3.68052 24.55 4.01663L15.5666 13L24.55 21.9833C24.8861 22.3194 25.0541 22.7472 25.0541 23.2666C25.0541 23.7861 24.8861 24.2139 24.55 24.55C24.2139 24.8861 23.7861 25.0541 23.2666 25.0541C22.7472 25.0541 22.3194 24.8861 21.9833 24.55L13 15.5666Z"></path>
    </symbol>
    <symbol xmlns="http://www.w3.org/2000/svg" viewBox="0 0 32 32" id="facebook">
        <path d="M31.5 15.7895C31.5 7.07368 24.444 0 15.75 0C7.056 0 0 7.07368 0 15.7895C0 23.4316 5.418 29.7947 12.6 31.2632V20.5263H9.45V15.7895H12.6V11.8421C12.6 8.79474 15.0728 6.31579 18.1125 6.31579H22.05V11.0526H18.9C18.0338 11.0526 17.325 11.7632 17.325 12.6316V15.7895H22.05V20.5263H17.325V31.5C25.2788 30.7105 31.5 23.9842 31.5 15.7895Z"></path>
    </symbol>
    <symbol xmlns="http://www.w3.org/2000/svg" viewBox="0 0 32 32" id="linkedIn">
        <path d="M16.0978 0.3479C7.39925 0.3479 0.347839 7.39931 0.347839 16.0979C0.347839 24.7965 7.39925 31.8479 16.0978 31.8479C24.7964 31.8479 31.8478 24.7965 31.8478 16.0979C31.8478 7.39931 24.7964 0.3479 16.0978 0.3479ZM12.2424 22.6259H9.05299V12.3622H12.2424V22.6259ZM10.628 11.1022C9.62065 11.1022 8.96932 10.3885 8.96932 9.50587C8.96932 8.60517 9.64034 7.91282 10.669 7.91282C11.6977 7.91282 12.3277 8.60517 12.3474 9.50587C12.3474 10.3885 11.6977 11.1022 10.628 11.1022ZM23.8908 22.6259H20.7014V16.9379C20.7014 15.6139 20.2388 14.7149 19.0854 14.7149C18.2044 14.7149 17.681 15.3235 17.4497 15.9092C17.3644 16.1176 17.3431 16.4129 17.3431 16.7066V22.6243H14.1521V15.6352C14.1521 14.3539 14.111 13.2826 14.0684 12.3606H16.8394L16.9854 13.7863H17.0494C17.4694 13.1169 18.4981 12.1292 20.2191 12.1292C22.3174 12.1292 23.8908 13.5352 23.8908 16.5573V22.6259V22.6259Z"></path>
    </symbol>
    <symbol xmlns="http://www.w3.org/2000/svg" viewBox="0 0 32 32" id="github">
        <path d="M16 0.25C7.30234 0.25 0.25 7.48516 0.25 16.4008C0.25 23.5375 4.76406 29.5844 11.0219 31.7219C11.1096 31.7409 11.1992 31.7504 11.2891 31.75C11.8727 31.75 12.0977 31.3211 12.0977 30.9484C12.0977 30.5617 12.0836 29.5492 12.0766 28.1992C11.5556 28.3214 11.0226 28.385 10.4875 28.3891C7.45703 28.3891 6.76797 26.0336 6.76797 26.0336C6.05078 24.1703 5.01719 23.6711 5.01719 23.6711C3.64609 22.7078 5.01016 22.6797 5.11562 22.6797H5.12266C6.70469 22.8203 7.53438 24.3531 7.53438 24.3531C8.32188 25.7313 9.37656 26.118 10.3187 26.118C10.9417 26.1055 11.5551 25.9618 12.1188 25.6961C12.2594 24.6555 12.6672 23.9453 13.1172 23.5375C9.62266 23.1297 5.94531 21.7445 5.94531 15.557C5.94531 13.7922 6.55703 12.3508 7.5625 11.2258C7.40078 10.818 6.85938 9.17266 7.71719 6.95078C7.83225 6.92325 7.95051 6.91142 8.06875 6.91563C8.63828 6.91563 9.925 7.13359 12.0484 8.61016C14.6286 7.88827 17.3574 7.88827 19.9375 8.61016C22.0609 7.13359 23.3477 6.91563 23.9172 6.91563C24.0354 6.91142 24.1537 6.92325 24.2688 6.95078C25.1266 9.17266 24.5852 10.818 24.4234 11.2258C25.4289 12.3578 26.0406 13.7992 26.0406 15.557C26.0406 21.7586 22.3563 23.1227 18.8477 23.5234C19.4102 24.0227 19.9164 25.007 19.9164 26.5117C19.9164 28.6703 19.8953 30.4141 19.8953 30.9414C19.8953 31.3211 20.1133 31.75 20.6969 31.75C20.7913 31.7504 20.8856 31.741 20.9781 31.7219C27.243 29.5844 31.75 23.5305 31.75 16.4008C31.75 7.48516 24.6977 0.25 16 0.25Z"></path>
    </symbol>
    <symbol xmlns="http://www.w3.org/2000/svg" viewBox="0 0 32 32" id="behance">
        <path d="M12.7762 14.534C13.082 14.3125 13.2297 13.9469 13.2297 13.4441C13.2402 13.2051 13.191 12.9695 13.0855 12.7551C12.9906 12.5828 12.85 12.4387 12.6777 12.3367C12.4991 12.2284 12.3007 12.1567 12.0941 12.1258C11.8691 12.0836 11.6406 12.0625 11.4156 12.066H8.94414V14.868H11.6195C12.0801 14.8715 12.4703 14.759 12.7762 14.534ZM13.191 17.0652C12.8465 16.8016 12.3859 16.6715 11.8129 16.6715H8.93711V19.9762H11.7566C12.0203 19.9762 12.2629 19.9516 12.4984 19.9023C12.7213 19.8588 12.9337 19.7728 13.1242 19.6492C13.3035 19.5332 13.4477 19.375 13.5566 19.1711C13.6621 18.9672 13.7148 18.707 13.7148 18.3941C13.7148 17.7719 13.5391 17.3324 13.191 17.0652ZM16 0.25C7.30234 0.25 0.25 7.30234 0.25 16C0.25 24.6977 7.30234 31.75 16 31.75C24.6977 31.75 31.75 24.6977 31.75 16C31.75 7.30234 24.6977 0.25 16 0.25ZM19.041 10.3363H23.9066V11.5211H19.041V10.3363ZM16 20.1062C15.7724 20.5382 15.4474 20.9114 15.0508 21.1961C14.6359 21.4844 14.1754 21.6953 13.6867 21.8184C13.1755 21.9554 12.648 22.0228 12.1188 22.0188H6.29688V10.027H11.957C12.5301 10.027 13.0504 10.0797 13.525 10.1781C13.9961 10.2766 14.3969 10.4453 14.7344 10.6738C15.0684 10.9023 15.332 11.2082 15.5184 11.5879C15.7012 11.9641 15.7961 12.4352 15.7961 12.9941C15.7961 13.5988 15.659 14.098 15.3848 14.5023C15.107 14.9066 14.7063 15.2336 14.1613 15.4902C14.9031 15.7012 15.448 16.0773 15.8066 16.6047C16.1723 17.1391 16.3516 17.7789 16.3516 18.5312C16.3516 19.143 16.2355 19.6668 16 20.1062ZM25.8016 18.25H19.5297C19.5297 18.932 19.7652 19.5859 20.1203 19.9375C20.4789 20.2855 20.9922 20.4613 21.6637 20.4613C22.1488 20.4613 22.5602 20.3383 22.9117 20.0957C23.2598 19.8531 23.4707 19.5965 23.548 19.3293H25.6504C25.3129 20.3734 24.7996 21.1188 24.1035 21.5688C23.4145 22.0188 22.5707 22.2437 21.5898 22.2437C20.9043 22.2437 20.2891 22.1313 19.7371 21.9168C19.2062 21.7094 18.7281 21.393 18.3344 20.9852C17.9461 20.5664 17.6461 20.0738 17.452 19.5367C17.2375 18.9426 17.132 18.3168 17.1391 17.6875C17.1391 17.0371 17.248 16.4324 17.459 15.8699C17.8633 14.7766 18.7035 13.9012 19.7758 13.4477C20.3488 13.2086 20.9641 13.0891 21.5863 13.0961C22.3246 13.0961 22.9645 13.2367 23.5199 13.525C24.0547 13.8003 24.519 14.1948 24.877 14.6781C25.232 15.1598 25.4816 15.7082 25.6398 16.327C25.791 16.9352 25.8438 17.575 25.8016 18.25ZM21.5125 14.8891C21.1328 14.8891 20.8129 14.9559 20.5668 15.0859C20.3207 15.216 20.1168 15.3777 19.9621 15.5641C19.8148 15.744 19.7059 15.9522 19.6422 16.1758C19.5859 16.3621 19.5473 16.552 19.5332 16.7453H23.418C23.3617 16.1371 23.1508 15.6871 22.8695 15.3707C22.5742 15.0578 22.0996 14.8891 21.5125 14.8891Z"></path>
    </symbol>


    <symbol  xmlns="http://www.w3.org/2000/svg" viewBox="0 0 33 33" id="whatsapp">
        <path d="M30.4399 7.68485C25.5199 0.0998469 15.4749 -2.15515 7.68491 2.55985C0.0999141 7.27485 -2.36009 17.5248 2.55991 25.1098L2.96991 25.7248L1.32991 31.8749L7.47991 30.2349L8.09491 30.6448C10.7599 32.0798 13.6299 32.8998 16.4999 32.8998C19.5749 32.8998 22.6499 32.0798 25.3149 30.4398C32.8999 25.5198 35.1549 15.4748 30.4399 7.68485ZM26.1349 23.4698C25.3149 24.6998 24.2899 25.5198 22.8549 25.7248C22.0349 25.7248 21.0099 26.1348 16.9099 24.4948C13.4249 22.8548 10.5549 20.1898 8.50491 17.1148C7.27491 15.6798 6.65991 13.8348 6.45491 11.9898C6.45491 10.3498 7.06991 8.91485 8.09491 7.88985C8.50491 7.47985 8.91491 7.27485 9.32491 7.27485H10.3499C10.7599 7.27485 11.1699 7.27485 11.3749 8.09485C11.7849 9.11985 12.8099 11.5798 12.8099 11.7848C13.0149 11.9898 13.0149 12.3998 12.8099 12.6048C13.0149 13.0148 12.8099 13.4248 12.6049 13.6298C12.3999 13.8348 12.1949 14.2448 11.9899 14.4498C11.5799 14.6548 11.3749 15.0648 11.5799 15.4748C12.3999 16.7048 13.4249 17.9348 14.4499 18.9598C15.6799 19.9848 16.9099 20.8048 18.3449 21.4198C18.7549 21.6248 19.1649 21.6248 19.3699 21.2148C19.5749 20.8048 20.5999 19.7798 21.0099 19.3698C21.4199 18.9598 21.6249 18.9599 22.0349 19.1649L25.3149 20.8048C25.7249 21.0098 26.1349 21.2148 26.3399 21.4198C26.5449 22.0348 26.5449 22.8548 26.1349 23.4698Z" ></path>
    </symbol>
    <symbol  xmlns="http://www.w3.org/2000/svg" viewBox="0 0 30 30" id="upwork">
        <rect width="30" height="30" rx="15" ></rect>
        <path d="M20.6941 16.9527C19.8217 16.9527 19.004 16.5685 18.2605 15.9433L18.441 15.058L18.4474 15.0234C18.6112 14.083 19.1195 12.5058 20.695 12.5058C21.2623 12.5062 21.8064 12.7406 22.2075 13.1576C22.6088 13.5745 22.8344 14.14 22.8348 14.7296C22.8337 15.3192 22.6078 15.8843 22.2065 16.301C21.8053 16.7177 21.2614 16.9521 20.6941 16.9527ZM20.6941 10.2555C18.6841 10.2555 17.1237 11.6122 16.4904 13.8476C15.5245 12.3387 14.7899 10.527 14.3632 9H12.1972V14.8514C12.1965 15.4071 11.9839 15.9398 11.6059 16.3328C11.228 16.7258 10.7154 16.947 10.1808 16.9478C9.64634 16.9467 9.13412 16.7254 8.75644 16.3325C8.37875 15.9394 8.16642 15.4069 8.166 14.8514V9H6V14.8514C6 17.249 7.87625 19.2145 10.1808 19.2145C12.487 19.2145 14.3632 17.249 14.3632 14.8514V13.8724C14.782 14.7831 15.299 15.7063 15.926 16.5225L14.6015 23H16.8157L17.776 18.3021C18.6175 18.8608 19.585 19.2145 20.6941 19.2145C23.0691 19.2145 25 17.1971 25 14.7305C25 12.2622 23.0691 10.2555 20.6941 10.2555Z" fill="#111111"></path>
    </symbol>
    <symbol xmlns="http://www.w3.org/2000/svg" viewBox="0 0 20 20" id="message">
        <path d="M3.33333 3.33325H16.6667C17.5833 3.33325 18.3333 4.08325 18.3333 4.99992V14.9999C18.3333 15.9166 17.5833 16.6666 16.6667 16.6666H3.33333C2.41666 16.6666 1.66666 15.9166 1.66666 14.9999V4.99992C1.66666 4.08325 2.41666 3.33325 3.33333 3.33325Z"
              stroke-linecap="round" stroke-linejoin="round"></path>
        <path d="M18.3333 5L10 10.8333L1.66666 5" stroke-linecap="round" stroke-linejoin="round"></path>
    </symbol>
    <symbol xmlns="http://www.w3.org/2000/svg" viewBox="0 0 19 19" id="phone">
        <path d="M11.5417 4.16659C12.3556 4.32539 13.1037 4.72347 13.6901 5.30986C14.2765 5.89626 14.6745 6.64431 14.8333 7.45825L11.5417 4.16659ZM11.5417 0.833252C13.2327 1.02112 14.8097 1.7784 16.0135 2.98076C17.2174 4.18312 17.9767 5.75909 18.1667 7.44992L11.5417 0.833252ZM17.3333 14.0999V16.5999C17.3343 16.832 17.2867 17.0617 17.1938 17.2744C17.1008 17.487 16.9644 17.6779 16.7934 17.8348C16.6224 17.9917 16.4205 18.1112 16.2006 18.1855C15.9808 18.2599 15.7478 18.2875 15.5167 18.2666C12.9524 17.988 10.4892 17.1117 8.325 15.7083C6.31152 14.4288 4.60445 12.7217 3.325 10.7083C1.91665 8.53426 1.0402 6.05908 0.766667 3.48325C0.745842 3.25281 0.773229 3.02055 0.847084 2.80127C0.920938 2.58199 1.03964 2.38049 1.19564 2.2096C1.35163 2.03871 1.5415 1.90218 1.75316 1.80869C1.96481 1.7152 2.19362 1.6668 2.425 1.66659H4.925C5.32942 1.6626 5.72149 1.80582 6.02813 2.06953C6.33478 2.33324 6.53506 2.69946 6.59167 3.09992C6.69719 3.89997 6.89288 4.68552 7.175 5.44159C7.28712 5.73986 7.31139 6.06401 7.24492 6.37565C7.17846 6.68729 7.02405 6.97334 6.8 7.19992L5.74167 8.25825C6.92796 10.3445 8.65538 12.072 10.7417 13.2583L11.8 12.1999C12.0266 11.9759 12.3126 11.8215 12.6243 11.755C12.9359 11.6885 13.2601 11.7128 13.5583 11.8249C14.3144 12.107 15.0999 12.3027 15.9 12.4083C16.3048 12.4654 16.6745 12.6693 16.9388 12.9812C17.2031 13.2931 17.3435 13.6912 17.3333 14.0999Z"
              stroke-linecap="round" stroke-linejoin="round"></path>
    </symbol>
    <symbol xmlns="http://www.w3.org/2000/svg" viewBox="0 0 20 20" id="address">
        <path d="M17.5 8.33325C17.5 14.1666 10 19.1666 10 19.1666C10 19.1666 2.5 14.1666 2.5 8.33325C2.5 6.34413 3.29018 4.43647 4.6967 3.02995C6.10322 1.62343 8.01088 0.833252 10 0.833252C11.9891 0.833252 13.8968 1.62343 15.3033 3.02995C16.7098 4.43647 17.5 6.34413 17.5 8.33325Z"
              stroke-linecap="round" stroke-linejoin="round"></path>
        <path d="M10 10.8333C11.3807 10.8333 12.5 9.71396 12.5 8.33325C12.5 6.95254 11.3807 5.83325 10 5.83325C8.61929 5.83325 7.5 6.95254 7.5 8.33325C7.5 9.71396 8.61929 10.8333 10 10.8333Z"
              stroke-linecap="round" stroke-linejoin="round"></path>
    </symbol>
    <symbol  xmlns="http://www.w3.org/2000/svg" viewBox="0 0 30 30" id="instagramBlackIcon">
        <rect width="30" height="30" rx="15" ></rect>
        <path d="M15 6C17.4453 6 17.7504 6.009 18.7098 6.054C19.6683 6.099 20.3208 6.2493 20.895 6.4725C21.489 6.7011 21.9894 7.0107 22.4898 7.5102C22.9474 7.96011 23.3016 8.50433 23.5275 9.105C23.7498 9.6783 23.901 10.3317 23.946 11.2902C23.9883 12.2496 24 12.5547 24 15C24 17.4453 23.991 17.7504 23.946 18.7098C23.901 19.6683 23.7498 20.3208 23.5275 20.895C23.3022 21.496 22.948 22.0404 22.4898 22.4898C22.0398 22.9473 21.4956 23.3014 20.895 23.5275C20.3217 23.7498 19.6683 23.901 18.7098 23.946C17.7504 23.9883 17.4453 24 15 24C12.5547 24 12.2496 23.991 11.2902 23.946C10.3317 23.901 9.6792 23.7498 9.105 23.5275C8.50409 23.302 7.95977 22.9478 7.5102 22.4898C7.05247 22.04 6.69834 21.4957 6.4725 20.895C6.2493 20.3217 6.099 19.6683 6.054 18.7098C6.0117 17.7504 6 17.4453 6 15C6 12.5547 6.009 12.2496 6.054 11.2902C6.099 10.3308 6.2493 9.6792 6.4725 9.105C6.69771 8.50396 7.05192 7.95959 7.5102 7.5102C7.9599 7.05231 8.50419 6.69816 9.105 6.4725C9.6792 6.2493 10.3308 6.099 11.2902 6.054C12.2496 6.0117 12.5547 6 15 6ZM15 10.5C13.8065 10.5 12.6619 10.9741 11.818 11.818C10.9741 12.6619 10.5 13.8065 10.5 15C10.5 16.1935 10.9741 17.3381 11.818 18.182C12.6619 19.0259 13.8065 19.5 15 19.5C16.1935 19.5 17.3381 19.0259 18.182 18.182C19.0259 17.3381 19.5 16.1935 19.5 15C19.5 13.8065 19.0259 12.6619 18.182 11.818C17.3381 10.9741 16.1935 10.5 15 10.5ZM20.85 10.275C20.85 9.97663 20.7315 9.69048 20.5205 9.4795C20.3095 9.26853 20.0234 9.15 19.725 9.15C19.4266 9.15 19.1405 9.26853 18.9295 9.4795C18.7185 9.69048 18.6 9.97663 18.6 10.275C18.6 10.5734 18.7185 10.8595 18.9295 11.0705C19.1405 11.2815 19.4266 11.4 19.725 11.4C20.0234 11.4 20.3095 11.2815 20.5205 11.0705C20.7315 10.8595 20.85 10.5734 20.85 10.275ZM15 12.3C15.7161 12.3 16.4028 12.5845 16.9092 13.0908C17.4155 13.5972 17.7 14.2839 17.7 15C17.7 15.7161 17.4155 16.4028 16.9092 16.9092C16.4028 17.4155 15.7161 17.7 15 17.7C14.2839 17.7 13.5972 17.4155 13.0908 16.9092C12.5845 16.4028 12.3 15.7161 12.3 15C12.3 14.2839 12.5845 13.5972 13.0908 13.0908C13.5972 12.5845 14.2839 12.3 15 12.3Z" fill="#1C1C1C"></path>
    </symbol>
    <symbol  xmlns="http://www.w3.org/2000/svg" viewBox="0 0 30 30" id="instagramBlueIcon">
        <rect width="30" height="30" rx="15" ></rect>
        <path d="M15 6C17.4453 6 17.7504 6.009 18.7098 6.054C19.6683 6.099 20.3208 6.2493 20.895 6.4725C21.489 6.7011 21.9894 7.0107 22.4898 7.5102C22.9474 7.96011 23.3016 8.50433 23.5275 9.105C23.7498 9.6783 23.901 10.3317 23.946 11.2902C23.9883 12.2496 24 12.5547 24 15C24 17.4453 23.991 17.7504 23.946 18.7098C23.901 19.6683 23.7498 20.3208 23.5275 20.895C23.3022 21.496 22.948 22.0404 22.4898 22.4898C22.0398 22.9473 21.4956 23.3014 20.895 23.5275C20.3217 23.7498 19.6683 23.901 18.7098 23.946C17.7504 23.9883 17.4453 24 15 24C12.5547 24 12.2496 23.991 11.2902 23.946C10.3317 23.901 9.6792 23.7498 9.105 23.5275C8.50409 23.302 7.95977 22.9478 7.5102 22.4898C7.05247 22.04 6.69834 21.4957 6.4725 20.895C6.2493 20.3217 6.099 19.6683 6.054 18.7098C6.0117 17.7504 6 17.4453 6 15C6 12.5547 6.009 12.2496 6.054 11.2902C6.099 10.3308 6.2493 9.6792 6.4725 9.105C6.69771 8.50396 7.05192 7.95959 7.5102 7.5102C7.9599 7.05231 8.50419 6.69816 9.105 6.4725C9.6792 6.2493 10.3308 6.099 11.2902 6.054C12.2496 6.0117 12.5547 6 15 6ZM15 10.5C13.8065 10.5 12.6619 10.9741 11.818 11.818C10.9741 12.6619 10.5 13.8065 10.5 15C10.5 16.1935 10.9741 17.3381 11.818 18.182C12.6619 19.0259 13.8065 19.5 15 19.5C16.1935 19.5 17.3381 19.0259 18.182 18.182C19.0259 17.3381 19.5 16.1935 19.5 15C19.5 13.8065 19.0259 12.6619 18.182 11.818C17.3381 10.9741 16.1935 10.5 15 10.5ZM20.85 10.275C20.85 9.97663 20.7315 9.69048 20.5205 9.4795C20.3095 9.26853 20.0234 9.15 19.725 9.15C19.4266 9.15 19.1405 9.26853 18.9295 9.4795C18.7185 9.69048 18.6 9.97663 18.6 10.275C18.6 10.5734 18.7185 10.8595 18.9295 11.0705C19.1405 11.2815 19.4266 11.4 19.725 11.4C20.0234 11.4 20.3095 11.2815 20.5205 11.0705C20.7315 10.8595 20.85 10.5734 20.85 10.275ZM15 12.3C15.7161 12.3 16.4028 12.5845 16.9092 13.0908C17.4155 13.5972 17.7 14.2839 17.7 15C17.7 15.7161 17.4155 16.4028 16.9092 16.9092C16.4028 17.4155 15.7161 17.7 15 17.7C14.2839 17.7 13.5972 17.4155 13.0908 16.9092C12.5845 16.4028 12.3 15.7161 12.3 15C12.3 14.2839 12.5845 13.5972 13.0908 13.0908C13.5972 12.5845 14.2839 12.3 15 12.3Z" fill="#00D8FF"></path>
    </symbol>
    <symbol xmlns="http://www.w3.org/2000/svg" viewBox="0 0 175 37" id="navLogo">
        <path d="M47.5612 1.7207H53.2339V32.9688H47.5612V19.1258H34.0094V32.9688H28.3367V1.7207H34.0094V14.2109H47.5612V1.7207Z"></path>
        <path d="M18.588 32.9984C17.8098 31.7976 16.9118 30.5368 15.8941 29.2162C14.8763 27.8954 13.7988 26.6196 12.6614 25.3889C11.5538 24.1582 10.4015 22.9875 9.20424 21.8768C8.0069 20.7661 6.82457 19.8056 5.6572 18.9951V32.9984H0V1.79492H5.6572V14.6725C6.64498 13.682 7.67764 12.6313 8.75525 11.5207C9.83278 10.3801 10.8953 9.23929 11.943 8.09862C13.0206 6.92795 14.0383 5.80228 14.9961 4.72171C15.9539 3.64104 16.822 2.66548 17.6002 1.79492H24.3798C23.3921 2.93559 22.3445 4.12137 21.237 5.35205C20.1295 6.58272 18.9921 7.8285 17.8247 9.08928C16.6574 10.32 15.475 11.5507 14.2778 12.7814C13.1104 14.0121 11.9579 15.1828 10.8205 16.2935C12.0777 17.254 13.3498 18.3797 14.6369 19.6706C15.9539 20.9312 17.241 22.297 18.4982 23.7679C19.7553 25.2088 20.9526 26.7247 22.09 28.3156C23.2574 29.8766 24.3201 31.4374 25.2778 32.9984H18.588Z"></path>
        <path d="M103.825 4.29317L108.984 3.44043V10.177H116.913V14.4833H108.984V23.5651C108.984 25.3559 109.268 26.6349 109.836 27.4025C110.404 28.1699 111.371 28.5537 112.735 28.5537C113.673 28.5537 114.498 28.4541 115.207 28.2552C115.946 28.0562 116.529 27.8714 116.955 27.7009L117.808 31.794C117.212 32.0498 116.43 32.3057 115.463 32.5615C114.498 32.8458 113.36 32.9879 112.053 32.9879C110.462 32.9879 109.126 32.7747 108.045 32.3483C106.994 31.922 106.156 31.3108 105.531 30.515C104.905 29.6907 104.465 28.71 104.209 27.573C103.953 26.4076 103.825 25.0859 103.825 23.6078V4.29317ZM119.436 21.4332C119.436 19.4719 119.72 17.7522 120.289 16.2741C120.885 14.796 121.667 13.5737 122.634 12.6074C123.599 11.6125 124.707 10.8735 125.959 10.3902C127.209 9.87855 128.488 9.62274 129.794 9.62274C132.864 9.62274 135.252 10.575 136.957 12.4794C138.691 14.3839 139.558 17.2263 139.558 21.0069C139.558 21.2911 139.544 21.6179 139.514 21.9875C139.514 22.3286 139.5 22.6413 139.472 22.9255H124.765C124.907 24.7163 125.532 26.1091 126.64 27.104C127.777 28.0705 129.411 28.5537 131.543 28.5537C132.793 28.5537 133.93 28.4399 134.953 28.2126C136.005 27.9852 136.828 27.7435 137.425 27.4877L138.108 31.7088C137.824 31.8509 137.425 32.0073 136.914 32.1778C136.431 32.3198 135.863 32.4478 135.209 32.5615C134.583 32.7036 133.902 32.8174 133.163 32.9027C132.424 32.9879 131.671 33.0305 130.904 33.0305C128.943 33.0305 127.237 32.7463 125.788 32.1778C124.338 31.5809 123.145 30.7708 122.207 29.7474C121.268 28.6957 120.573 27.4736 120.118 26.0807C119.664 24.6594 119.436 23.1102 119.436 21.4332ZM134.399 19.1308C134.399 18.4201 134.3 17.7522 134.1 17.1269C133.902 16.4732 133.603 15.9189 133.205 15.464C132.836 14.9809 132.367 14.6113 131.799 14.3555C131.258 14.0711 130.605 13.9291 129.838 13.9291C129.041 13.9291 128.346 14.0855 127.749 14.3982C127.152 14.6824 126.64 15.0662 126.213 15.5494C125.816 16.0325 125.504 16.5868 125.276 17.2122C125.049 17.8375 124.893 18.4771 124.807 19.1308H134.399ZM142.938 21.348C142.938 19.6993 143.194 18.1643 143.705 16.7431C144.216 15.2934 144.941 14.0428 145.878 12.991C146.845 11.9394 148.011 11.1151 149.375 10.5181C150.739 9.9212 152.273 9.62274 153.979 9.62274C156.082 9.62274 158.071 10.0065 159.948 10.7739L158.839 14.9951C158.242 14.7392 157.56 14.526 156.793 14.3555C156.054 14.1849 155.257 14.0997 154.406 14.0997C152.387 14.0997 150.853 14.7392 149.801 16.0183C148.75 17.2689 148.224 19.0456 148.224 21.348C148.224 23.5651 148.721 25.3273 149.716 26.6349C150.711 27.9141 152.387 28.5537 154.746 28.5537C155.628 28.5537 156.495 28.4684 157.346 28.2977C158.199 28.1272 158.938 27.9141 159.563 27.6583L160.288 31.922C159.72 32.2062 158.853 32.462 157.687 32.6894C156.551 32.9168 155.371 33.0305 154.15 33.0305C152.245 33.0305 150.583 32.7463 149.161 32.1778C147.769 31.5809 146.603 30.7708 145.666 29.7474C144.756 28.6957 144.074 27.4592 143.619 26.038C143.165 24.5883 142.938 23.0249 142.938 21.348Z"
              fill="#00D8FF"></path>
        <path d="M89.0441 16.5107C90.2034 16.5107 91.0475 16.158 91.5768 15.4527C92.1312 14.7223 92.4083 13.8659 92.4083 12.8836V7.32964C92.4083 6.14588 92.5217 5.10052 92.7485 4.1938C92.9754 3.26187 93.3786 2.49366 93.9582 1.88907C94.5378 1.25938 95.3442 0.793411 96.3774 0.49117C97.4107 0.163722 98.7337 0 100.346 0H100.611V3.62713C99.8802 3.62713 99.2629 3.67742 98.7589 3.77825C98.2548 3.87895 97.8516 4.06788 97.5492 4.34492C97.2469 4.59675 97.02 4.9494 96.8688 5.40276C96.7428 5.83104 96.6798 6.38511 96.6798 7.06521V12.468C96.6798 13.9793 96.4782 15.1883 96.075 16.095C95.6971 16.9766 95.0418 17.707 94.1093 18.2864C95.0418 18.8657 95.6971 19.6087 96.075 20.5155C96.4782 21.4222 96.6798 22.6186 96.6798 24.1047V29.5453C96.6798 30.2254 96.7428 30.7795 96.8688 31.2077C97.02 31.6359 97.2469 31.9759 97.5492 32.2278C97.8516 32.5049 98.2548 32.6939 98.7589 32.7946C99.2629 32.8953 99.8802 32.9457 100.611 32.9457V36.5727C98.9227 36.5727 97.5492 36.4216 96.4908 36.1193C95.4324 35.8171 94.6008 35.351 93.996 34.7214C93.3912 34.1168 92.9754 33.3612 92.7485 32.4545C92.5217 31.5477 92.4083 30.4898 92.4083 29.2809V23.6892C92.4083 22.7319 92.1312 21.9008 91.5768 21.1955C91.0475 20.4651 90.2034 20.0999 89.0441 20.0999V16.5107Z"
              fill="#00D8FF"></path>
        <path d="M175 20.194C173.851 20.194 173.001 20.5571 172.452 21.2834C171.927 21.9846 171.664 22.8112 171.664 23.7629V29.3229C171.664 30.5251 171.552 31.577 171.327 32.4785C171.103 33.3802 170.69 34.1316 170.09 34.7326C169.491 35.3588 168.666 35.8221 167.617 36.1226C166.568 36.4231 165.206 36.5734 163.532 36.5734V32.9669C164.981 32.9669 165.993 32.729 166.568 32.2532C167.142 31.8023 167.429 30.9132 167.429 29.5858V24.1762C167.429 22.6984 167.617 21.5088 167.992 20.6072C168.391 19.7056 169.054 18.9668 169.978 18.3907C169.054 17.8147 168.391 17.0884 167.992 16.2118C167.617 15.3101 167.429 14.108 167.429 12.6053V7.23312C167.429 6.55691 167.355 6.00593 167.205 5.58018C167.08 5.12934 166.867 4.77875 166.568 4.5283C166.268 4.25275 165.868 4.06497 165.368 3.96472C164.869 3.86458 164.256 3.81451 163.532 3.81451V0.208008H163.794C165.393 0.208008 166.705 0.370816 167.729 0.696315C168.753 0.996953 169.553 1.46028 170.128 2.08642C170.703 2.68746 171.103 3.45132 171.327 4.37798C171.552 5.27966 171.664 6.31895 171.664 7.49606V13.0186C171.664 13.9953 171.927 14.8468 172.452 15.5732C173.001 16.2744 173.851 16.6251 175 16.6251V20.194Z"
              fill="#00D8FF"></path>
        <path d="M71.4483 6.55521C68.3812 6.55521 66.0307 7.51757 64.3968 9.44219C62.7915 11.3381 61.989 13.9808 61.989 17.3704C61.989 18.979 62.1753 20.4585 62.5479 21.8085C62.9492 23.13 63.5225 24.2646 64.2678 25.2125C65.0418 26.1604 65.9876 26.9073 67.1056 27.453C68.2522 27.9701 69.5851 28.2287 71.1043 28.2287C72.0503 28.2287 72.8672 28.1999 73.5552 28.1425C74.2431 28.0563 74.7878 27.9558 75.189 27.8409V17.1119H80.6067V31.4603C79.8614 31.7476 78.6001 32.0635 76.823 32.4082C75.0458 32.753 72.9962 32.9253 70.6744 32.9253C68.5245 32.9253 66.561 32.5806 64.7838 31.8912C63.0066 31.2017 61.4873 30.1964 60.2261 28.875C58.9935 27.5536 58.0332 25.9307 57.3453 24.006C56.6573 22.0813 56.3134 19.8695 56.3134 17.3704C56.3134 14.8712 56.686 12.6594 57.4312 10.7348C58.2053 8.81017 59.2515 7.18723 60.57 5.86577C61.8886 4.51574 63.4365 3.49596 65.2137 2.80652C66.9909 2.11708 68.8828 1.77246 70.8893 1.77246C72.2652 1.77246 73.4835 1.87292 74.544 2.07404C75.6333 2.2464 76.5649 2.44742 77.3389 2.6773C78.1129 2.90708 78.7435 3.15124 79.2308 3.40978C79.7467 3.66832 80.105 3.85506 80.3057 3.9699L78.6718 8.40803C77.8118 7.89095 76.7369 7.46005 75.4471 7.11533C74.1858 6.74195 72.8529 6.55521 71.4483 6.55521Z"></path>
    </symbol>
    <symbol fill="none" xmlns="http://www.w3.org/2000/svg" viewBox="0 0 66 45" id="frontEndIcon">
        <path d="M0.34 20.88L19.735 12.69L21.22 17.145L6.145 23.175L21.22 29.205L19.735 33.66L0.34 25.47V20.88ZM27.9412 44.325H22.3612L37.5712 0.764998H43.0612L27.9412 44.325ZM65.5169 25.47L46.1219 33.66L44.6369 29.205L59.7119 23.175L44.6369 17.145L46.1219 12.69L65.5169 20.88V25.47Z"
              fill="#00D8FF"></path>
    </symbol>
    <symbol xmlns="http://www.w3.org/2000/svg" viewBox="0 0 64 48" id="backendIcon">
        <path d="M13.3333 0H18.6667V5.33333H13.3333V18.6667C13.3333 20.0812 12.7714 21.4377 11.7712 22.4379C10.771 23.4381 9.41449 24 8 24C9.41449 24 10.771 24.5619 11.7712 25.5621C12.7714 26.5623 13.3333 27.9188 13.3333 29.3333V42.6667H18.6667V48H13.3333C10.48 47.28 8 45.6 8 42.6667V32C8 30.5855 7.4381 29.229 6.4379 28.2288C5.43771 27.2286 4.08115 26.6667 2.66667 26.6667H0V21.3333H2.66667C4.08115 21.3333 5.43771 20.7714 6.4379 19.7712C7.4381 18.771 8 17.4145 8 16V5.33333C8 3.91885 8.5619 2.56229 9.5621 1.5621C10.5623 0.561903 11.9188 0 13.3333 0M50.6667 0C52.0812 0 53.4377 0.561903 54.4379 1.5621C55.4381 2.56229 56 3.91885 56 5.33333V16C56 17.4145 56.5619 18.771 57.5621 19.7712C58.5623 20.7714 59.9188 21.3333 61.3333 21.3333H64V26.6667H61.3333C59.9188 26.6667 58.5623 27.2286 57.5621 28.2288C56.5619 29.229 56 30.5855 56 32V42.6667C56 44.0812 55.4381 45.4377 54.4379 46.4379C53.4377 47.4381 52.0812 48 50.6667 48H45.3333V42.6667H50.6667V29.3333C50.6667 27.9188 51.2286 26.5623 52.2288 25.5621C53.229 24.5619 54.5855 24 56 24C54.5855 24 53.229 23.4381 52.2288 22.4379C51.2286 21.4377 50.6667 20.0812 50.6667 18.6667V5.33333H45.3333V0H50.6667ZM32 32C32.7072 32 33.3855 32.281 33.8856 32.7811C34.3857 33.2811 34.6667 33.9594 34.6667 34.6667C34.6667 35.3739 34.3857 36.0522 33.8856 36.5523C33.3855 37.0524 32.7072 37.3333 32 37.3333C31.2928 37.3333 30.6145 37.0524 30.1144 36.5523C29.6143 36.0522 29.3333 35.3739 29.3333 34.6667C29.3333 33.9594 29.6143 33.2811 30.1144 32.7811C30.6145 32.281 31.2928 32 32 32M21.3333 32C22.0406 32 22.7189 32.281 23.219 32.7811C23.719 33.2811 24 33.9594 24 34.6667C24 35.3739 23.719 36.0522 23.219 36.5523C22.7189 37.0524 22.0406 37.3333 21.3333 37.3333C20.6261 37.3333 19.9478 37.0524 19.4477 36.5523C18.9476 36.0522 18.6667 35.3739 18.6667 34.6667C18.6667 33.9594 18.9476 33.2811 19.4477 32.7811C19.9478 32.281 20.6261 32 21.3333 32ZM42.6667 32C43.3739 32 44.0522 32.281 44.5523 32.7811C45.0524 33.2811 45.3333 33.9594 45.3333 34.6667C45.3333 35.3739 45.0524 36.0522 44.5523 36.5523C44.0522 37.0524 43.3739 37.3333 42.6667 37.3333C41.9594 37.3333 41.2811 37.0524 40.7811 36.5523C40.281 36.0522 40 35.3739 40 34.6667C40 33.9594 40.281 33.2811 40.7811 32.7811C41.2811 32.281 41.9594 32 42.6667 32V32Z"></path>
    </symbol>
    <symbol xmlns="http://www.w3.org/2000/svg" viewBox="0 0 53 53" id="supportIcon">
        <path fill-rule="evenodd" clip-rule="evenodd"
              d="M0.625 21.4688C0.625 9.95725 9.95725 0.625 21.4688 0.625H31.5312C43.0428 0.625 52.375 9.95725 52.375 21.4688C52.375 32.9803 43.0428 42.3125 31.5312 42.3125H30.525V52.375C30.525 52.375 0.625 47.3438 0.625 21.4688ZM31.8058 9.94288C33.2864 10.9261 34.4034 12.5203 34.4034 14.6579C34.4034 16.9263 33.4877 18.5937 32.0056 19.6144C31.4205 20.0105 30.7748 20.3086 30.0938 20.497V22.6993C30.0938 22.9824 30.038 23.2628 29.9296 23.5244C29.8213 23.786 29.6624 24.0237 29.4622 24.2239C29.262 24.4242 29.0243 24.583 28.7627 24.6914C28.5011 24.7997 28.2207 24.8555 27.9375 24.8555C27.6543 24.8555 27.3739 24.7997 27.1123 24.6914C26.8507 24.583 26.613 24.4242 26.4128 24.2239C26.2126 24.0237 26.0537 23.786 25.9454 23.5244C25.837 23.2628 25.7812 22.9824 25.7812 22.6993V18.6786C25.7811 18.1315 25.989 17.6048 26.3626 17.2053C26.7363 16.8057 27.2479 16.5631 27.7937 16.5266C28.5901 16.4734 29.1939 16.3153 29.559 16.0637C29.7064 15.966 29.8254 15.8312 29.904 15.6728C29.9903 15.5003 30.0909 15.1926 30.0909 14.6564C30.0909 14.2065 29.9141 13.8629 29.4181 13.5323C28.8546 13.1586 27.949 12.8826 26.8608 12.8481C25.7856 12.8136 24.7405 13.0234 23.9714 13.3957C23.2009 13.7695 22.9192 14.1893 22.8387 14.4983C22.7735 14.778 22.653 15.0419 22.4844 15.2744C22.3158 15.5069 22.1025 15.7034 21.8569 15.8523C21.6113 16.0012 21.3385 16.0996 21.0544 16.1416C20.7703 16.1837 20.4806 16.1685 20.2025 16.0971C19.9243 16.0257 19.6632 15.8994 19.4345 15.7256C19.2058 15.5519 19.0141 15.3343 18.8707 15.0854C18.7272 14.8366 18.635 14.5616 18.5993 14.2767C18.5636 13.9917 18.5851 13.7025 18.6628 13.4259C19.1573 11.4982 20.6005 10.239 22.0912 9.51594C23.5862 8.79 25.3443 8.48381 26.9988 8.537C28.6404 8.58875 30.3942 9.00275 31.8058 9.94288V9.94288ZM27.9375 33.6875C28.7 33.6875 29.4313 33.3846 29.9704 32.8454C30.5096 32.3063 30.8125 31.575 30.8125 30.8125C30.8125 30.05 30.5096 29.3187 29.9704 28.7796C29.4313 28.2404 28.7 27.9375 27.9375 27.9375C27.175 27.9375 26.4437 28.2404 25.9046 28.7796C25.3654 29.3187 25.0625 30.05 25.0625 30.8125C25.0625 31.575 25.3654 32.3063 25.9046 32.8454C26.4437 33.3846 27.175 33.6875 27.9375 33.6875V33.6875Z"></path>
    </symbol>
    <symbol fill="none" xmlns="http://www.w3.org/2000/svg" viewBox="0 0 38 38" id="subscribePopupCross">
        <path d="M4.53464 37.0833L0.917969 33.4666L15.3846 19L0.917969 4.53329L4.53464 0.916626L19.0013 15.3833L33.468 0.916626L37.0846 4.53329L22.618 19L37.0846 33.4666L33.468 37.0833L19.0013 22.6166L4.53464 37.0833Z"
              fill="white"></path>
    </symbol>
    <symbol xmlns="http://www.w3.org/2000/svg" viewBox="0 0 21 17" id="musicPrev">
        <path d="M20.166 0.041626V16.9583L11.7077 8.49996M3.24935 0.041626V16.9583H0.832682V0.041626M11.7077 0.041626V16.9583L3.24935 8.49996"></path>
    </symbol>
    <symbol xmlns="http://www.w3.org/2000/svg" viewBox="0 0 21 17" id="musicNext">
        <path d="M0.833984 0.041626V16.9583L9.29232 8.49996M17.7507 0.041626V16.9583H20.1673V0.041626M9.29232 0.041626V16.9583L17.7507 8.49996"></path>
    </symbol>
    <symbol xmlns="http://www.w3.org/2000/svg" viewBox="0 0 18 25" id="musicPlay">
        <path d="M0.5 24.9167V0L17.8333 12.4583L0.5 24.9167Z"></path>
    </symbol>
    <symbol xmlns="http://www.w3.org/2000/svg" viewBox="0 0 14 19" id="musicStop">
        <path d="M0 19V0H4.66667V19H0ZM9.33333 19V0H14V19H9.33333Z"></path>
    </symbol>
    <symbol xmlns="http://www.w3.org/2000/svg" viewBox="0 0 10 20" id="attachFile">
        <path d="M8.74967 4.99967V14.583C8.74967 16.4247 7.25801 17.9163 5.41634 17.9163C3.57467 17.9163 2.08301 16.4247 2.08301 14.583V4.16634C2.08301 3.61381 2.3025 3.0839 2.6932 2.6932C3.0839 2.3025 3.61381 2.08301 4.16634 2.08301C4.71888 2.08301 5.24878 2.3025 5.63948 2.6932C6.03018 3.0839 6.24967 3.61381 6.24967 4.16634V12.9163C6.24967 13.3747 5.87467 13.7497 5.41634 13.7497C4.95801 13.7497 4.58301 13.3747 4.58301 12.9163V4.99967H3.33301V12.9163C3.33301 13.4689 3.5525 13.9988 3.9432 14.3895C4.3339 14.7802 4.86381 14.9997 5.41634 14.9997C5.96888 14.9997 6.49878 14.7802 6.88948 14.3895C7.28018 13.9988 7.49967 13.4689 7.49967 12.9163V4.16634C7.49967 2.32467 6.00801 0.833008 4.16634 0.833008C2.32467 0.833008 0.833008 2.32467 0.833008 4.16634V14.583C0.833008 17.1163 2.88301 19.1663 5.41634 19.1663C7.94967 19.1663 9.99967 17.1163 9.99967 14.583V4.99967H8.74967Z"
        ></path>
    </symbol>
</svg>