<svg width="0" height="0" class="hidden">
    <symbol xmlns="http://www.w3.org/2000/svg" viewBox="0 0 19 12" id="arrowDown">
        <path d="M3.51844 1.32227L9.5001 7.30394L15.4818 1.32227C15.6245 1.17954 15.7939 1.06632 15.9804 0.989074C16.1669 0.911829 16.3668 0.87207 16.5686 0.87207C16.7705 0.87207 16.9704 0.911829 17.1569 0.989074C17.3433 1.06632 17.5128 1.17954 17.6555 1.32227C17.7983 1.465 17.9115 1.63445 17.9887 1.82093C18.066 2.00742 18.1057 2.20729 18.1057 2.40914C18.1057 2.611 18.066 2.81087 17.9887 2.99736C17.9115 3.18384 17.7983 3.35329 17.6555 3.49602L10.5793 10.5723C10.4366 10.7152 10.2672 10.8286 10.0807 10.9059C9.89423 10.9833 9.6943 11.0231 9.49239 11.0231C9.29048 11.0231 9.09056 10.9833 8.90406 10.9059C8.71756 10.8286 8.54814 10.7152 8.40552 10.5723L1.32927 3.49602C1.18635 3.35339 1.07296 3.18398 0.995602 2.99748C0.918239 2.81098 0.878418 2.61105 0.878418 2.40914C0.878418 2.20723 0.918239 2.00731 0.995602 1.82081C1.07296 1.63431 1.18635 1.46489 1.32927 1.32227C1.93052 0.736436 2.91719 0.721019 3.51844 1.32227Z"></path>
    </symbol>
</svg>